<svg width="268" height="235" viewBox="0 0 268 235" xmlns="http://www.w3.org/2000/svg"><title>Artboard</title><g fill="none" fill-rule="evenodd"><g fill="#000"><path d="M106.189 9.36c-.822.274 8.196 14.167 9.113 15.249 5.326 6.282 11.932 11.335 18.914 15.638 13.637 8.403 28.813 14.201 43.901 19.399 16.17 5.57 32.715 9.896 48.953 15.228 12.22 4.122 23.563 12.205 30.745 22.987 17.178 25.787 2.739 56.368-21.587 70.737-27.917 16.489-64.24 17.205-93.621 4.362-14.102-6.164-26.871-15.201-37.901-25.892-2.048-1.985-25.737-28.466-22.517-30.375.8-.477 9.402 10.67 10.295 11.69 5.043 5.758 10.375 11.271 16.076 16.381 12.163 10.902 25.976 20.069 41.324 25.813 29.921 11.09 69.196 8.583 94.182-12.941 12.101-10.424 19.818-26.28 16.764-42.446-2.709-14.341-12.377-24.873-24.396-32.388-11.005-6.881-24.819-9.436-37.015-13.355-15.994-5.141-31.977-10.6-47.229-17.689-10.063-4.677-19.997-10.097-28.504-17.29-4.276-3.616-8.201-7.679-11.379-12.302-.657-.955-7.09-12.482-6.118-12.806" fill-opacity=".492"/><path d="M209.995 84.651c.228-.862 13.226 4.357 14.469 4.949 6.449 3.067 12.462 7.017 17.877 11.67 11.127 9.561 20.151 22.294 23.724 36.655 3.737 15.023.14 30.717-11.163 41.581-11.197 10.833-26.91 15.74-41.936 18.248-25.113 4.193-52.819 2.977-76.463-7.066-13.148-5.586-25.033-13.529-34.85-23.942-4.723-5.009-8.922-10.58-12.366-16.545-.587-1.017-7.91-14.803-5.765-15.508.897-.301 6.935 10.77 7.583 11.745 3.653 5.492 7.731 10.705 12.279 15.484 9.986 10.495 21.963 18.69 35.292 24.339 23.088 9.786 49.979 11.091 74.536 7.208 14.272-2.257 29.242-6.803 39.868-17.081 10.933-10.62 13.696-25.901 9.712-40.303-3.591-12.985-11.671-24.544-21.573-33.536a82.597 82.597 0 0 0-15.921-11.339c-1.279-.698-15.221-6.867-15.303-6.559" fill-opacity=".5"/><path d="M219.522 111.36c1.481-1.965 19.903 19.439 20.877 20.968 6.288 9.874 10.368 22.108 8.797 33.948-3.344 25.194-22.078 44.389-45.969 51.799-25.619 7.946-53.845-.456-76.239-13.673-10.502-6.2-20.053-14.019-27.917-23.358-1.918-2.278-19.126-27.727-14.882-29.017.751-.249 13.71 20.513 15.348 22.494 8.482 10.256 18.738 18.996 30.186 25.781 23.434 13.888 51.023 21.267 77.443 12.247 23.452-7.144 41.639-31.979 39.62-56.488-1.309-9.134-3.994-16.511-8.706-24.434-.98-1.551-17.9-21.141-18.558-20.267" fill-opacity=".5"/><path d="M208.856 157.36c.17 1.779-27.999 1.496-30.254 1.343-13.596-.926-27.1-3.892-39.745-9-11.258-4.548-21.839-10.671-31.277-18.321-4.381-3.551-8.521-7.475-12.14-11.807-2.206-2.64-5.811-6.518-6.158-10.057-.243-2.491 6.48 4.274 7.164 4.953 3.784 3.757 7.641 7.434 11.683 10.915 9.321 8.026 19.727 14.724 30.93 19.809 12.061 5.475 24.943 9.032 38.07 10.745 2.343.306 31.759 1.761 31.727 1.42M111.522 40.027c.044-.017 6.421 11.938 6.935 12.792 3.726 5.903 7.905 11.46 12.78 16.47 8.678 8.916 19.035 16.45 30.203 21.946 22.225 10.938 54.173 15.54 62.554 43.106.165.544 1.532 4.724.195 5.019-1.127.251-3.987-5.549-4.469-6.29-3.667-5.824-8.372-11.436-13.849-15.636-11.282-8.885-24.289-12.254-37.117-18.087-14.363-6.531-27.645-15.491-38.36-27.13-4.803-5.218-9.117-11.011-12.506-17.247-.49-.9-7.327-14.58-6.366-14.943M154.189 234.693c-.291 1.702-18.792-4.352-20.385-5.019-8.939-3.74-17.183-9.074-24.402-15.527-6.858-6.129-12.899-13.163-17.979-20.827-2.988-4.508-9.321-13.174-8.41-19.127.429-2.798 3.764 2.425 4.031 2.83 1.934 2.929 3.71 5.963 5.565 8.943 4.798 7.707 10.026 15.09 16.246 21.727 7.093 7.569 15.284 14.082 24.471 18.931 1.615.853 20.804 8.413 20.863 8.069" fill-opacity=".5"/></g><path d="M225.931 119.818c-6.501 0-11.041-3.244-11.041-7.889 0-5.545 6.462-11.149 14.712-12.756a22.078 22.078 0 0 1 4.211-.421c2.092 0 3.997.325 5.626.95V46.818h5.418v59.823c0 5.545-6.462 11.148-14.712 12.756-1.433.28-2.85.421-4.213.421h-.001" fill="#D0021B"/><path d="M246.274 45.401h-8.253v52.392a18.61 18.61 0 0 0-4.209-.458c-1.454 0-2.961.15-4.481.446-8.893 1.734-15.859 7.948-15.859 14.148 0 5.479 5.123 9.306 12.459 9.306 1.455 0 2.963-.15 4.484-.447 8.893-1.733 15.859-7.947 15.859-14.147v-61.24zm-2.834 2.835v58.405c0 4.816-6.074 9.905-13.567 11.365a20.677 20.677 0 0 1-3.942.395c-5.569 0-9.624-2.537-9.624-6.472 0-4.816 6.074-9.905 13.566-11.365a20.64 20.64 0 0 1 3.938-.394c2.864 0 5.327.671 7.045 1.857V48.236h2.584z" fill="#FFFFFE"/><path d="M196.153 95.366c-5.315-.001-9.027-2.688-9.027-6.534 0-4.522 5.215-9.079 11.872-10.377a17.787 17.787 0 0 1 3.386-.338c1.522 0 2.922.214 4.152.626V37.058h4.877V84.65c0 4.521-5.214 9.08-11.872 10.377a17.72 17.72 0 0 1-3.387.339h-.001" fill="#417505"/><path d="M212.83 35.641h-7.712V76.93c-.865-.153-1.78-.23-2.735-.23-1.187 0-2.417.122-3.656.364-7.421 1.446-13.018 6.506-13.018 11.768 0 4.681 4.295 7.951 10.444 7.951 1.188 0 2.419-.123 3.659-.364 7.421-1.447 13.018-6.506 13.018-11.768v-49.01zm-2.835 2.834v46.176c0 3.808-4.802 7.831-10.725 8.985a16.291 16.291 0 0 1-3.117.312c-4.403 0-7.609-2.005-7.609-5.116 0-3.808 4.802-7.831 10.726-8.986a16.32 16.32 0 0 1 3.113-.311c2.264 0 4.211.53 5.569 1.468V38.475h2.043z" fill="#FFFFFE"/><path d="M169.886 203.375v-55.737c-1.516.376-3.18.569-4.95.569-1.58 0-3.221-.157-4.876-.467-9.704-1.818-17.307-8.345-17.307-14.86 0-5.716 5.54-9.709 13.471-9.709 1.582 0 3.225.158 4.881.468 9.705 1.818 17.308 8.345 17.308 14.86v64.876h-8.527" fill="#417505"/><path d="M156.227 120.337h-.002c-9.601 0-16.306 5.159-16.306 12.544 0 7.964 8.435 15.55 19.62 17.645 1.826.342 3.642.516 5.397.516.72 0 1.426-.029 2.116-.086v55.254h14.195v-67.712c0-7.964-8.435-15.55-19.62-17.645a29.38 29.38 0 0 0-5.4-.516zm-.001 5.669c1.379 0 2.841.135 4.357.419 8.281 1.552 14.994 6.957 14.994 12.073v62.042h-2.856V143.4c-1.899 1.26-4.621 1.972-7.785 1.972-1.378 0-2.839-.134-4.353-.418-8.281-1.552-14.995-6.957-14.995-12.073 0-4.18 4.482-6.875 10.638-6.875z" fill="#FFFFFE"/><path d="M84.549 22.399c-3.036 0-6.155 1.547-7.947 3.942-6.127 8.117-5.74 23.03-5.317 35.247 7.777-7.064 16.313-17.194 18.778-29.121 1.376-6.655.024-8.558-2.775-9.594a7.836 7.836 0 0 0-2.739-.474zM71.778 96.881c.267 19.031.603 45.626-.033 64.909a39.998 39.998 0 0 0 3.053-1.805c14.007-9.148 23.718-33.088 19.604-48.333-2.489-9.225-9.324-14.19-20.311-14.754a26.407 26.407 0 0 0-2.313-.017zm-24.959-.438c-12.633 9.558-23.748 20.885-26.112 36.472-1.472 9.109.457 17.088 5.576 23.099 5.776 6.785 15.155 10.677 25.73 10.677 2.497 0 5.001-.224 7.469-.667.206-17.213-.691-42.682-1.416-63.319l-.049-1.39c-5.216 3.523-8.964 8.884-10.524 15.214-1.212 4.911-1.229 9.817-.05 14.188.765 2.842 1.902 5.046 3.12 6.047.612.505 1.436.823 2.485 1.145.472.145.604.145.659.145.191 0 .38-.027.623-.053l3.05-.319.363 2.732c.062.465.084.897.068 1.32l-.082 2.13-2.069.513c-1.206.298-2.22.438-3.189.438-.354 0-.693-.019-1.026-.054-7.616-.801-12.582-6.689-13.981-16.577-1.695-12.165 1.814-23.617 9.355-31.741zM35.784 212.522c-4.492 0-8.237-.747-11.448-2.285-3.147-1.506-5.867-3.903-7.463-6.574-1.911-3.199-2.648-5.793-3.168-8.702-.209-1.182-.255-2.835.722-4.002a3.107 3.107 0 0 1 2.387-1.119c.667 0 1.308.205 1.908.608 1.265.851 1.631 2.259 1.874 3.19.031.121.058.235.089.327.357.965.685 1.733 1.023 2.403 2.915 5.746 9.622 6.604 13.36 6.604 2.312 0 4.756-.313 7.068-.906 7.512-1.733 13.167-7.898 15.657-16.803a54.029 54.029 0 0 1-5.878.323c-8.019 0-15.761-1.786-23.012-5.309-14.744-7.483-23.39-19.148-25.047-33.756-2.136-18.839 7.821-40.474 25.366-55.118 6.025-4.772 12.476-8.912 18.715-12.916 3.039-1.95 6.169-3.958 9.206-6.012l-.077-1.604c-.586-11.97-1.676-34.25 3.825-49.461C65.705 8.104 76.845 3.363 85.665 3.363c1.949 0 3.884.22 5.755.655 6.97 1.619 11.467 5.838 13.006 12.199 4.075 16.841-13.561 45.534-32.89 62.38.017 1.832.042 3.835.07 5.98a34.39 34.39 0 0 1 2.375-.083c10.769 0 20.902 5.198 27.8 14.263 8.684 11.413 11.107 27.203 6.649 43.323-5.159 18.65-19.735 33.981-38.268 40.394-.055.319-.111.622-.168.911-3.304 16.478-14.681 27.557-29.692 28.917a49.74 49.74 0 0 1-4.517.22h-.001z" fill="#000"/><path d="M52.013 163.856c-9.6 0-18.412-3.618-23.572-9.679-4.563-5.36-6.271-12.546-4.94-20.782l.004-.028.005-.027c1.397-9.213 6.16-16.931 12.546-23.688-1.801 5.868-2.323 12.297-1.4 18.917 1.578 11.149 7.589 18.074 16.493 19.011.437.046.882.07 1.322.07 1.204 0 2.434-.166 3.87-.522l.201-.05c.105 5.91.156 11.506.127 16.501a39.452 39.452 0 0 1-4.656.277zm1.865-28.657c-.305-.094-1.211-.373-1.514-.623-.452-.372-1.42-1.757-2.185-4.596-1.038-3.854-1.015-8.389.065-12.772.923-3.741 2.702-7.101 5.148-9.854.309 8.841.632 18.355.877 27.593l-1.923.201-.324.035-.144.016zm20.847 21.378c.409-17.682.162-39.774-.073-56.805 9.334.663 14.902 4.796 17.013 12.619 3.698 13.702-4.605 34.954-16.94 44.186zm-.784-101.544c-.155-9.953.41-21.004 4.917-26.974 1.269-1.698 3.551-2.825 5.692-2.825.631 0 1.221.1 1.753.297 1.051.389 2.136.791.985 6.362-1.846 8.931-7.399 16.865-13.347 23.14zM85.666.528C73.185.527 62.67 8.159 58.226 20.446c-5.696 15.748-4.587 38.397-3.992 50.567-2.592 1.729-5.24 3.428-7.822 5.085-6.299 4.042-12.813 8.222-18.893 13.037l-.057.045-.056.047C9.148 104.466-1.201 127.08 1.04 146.84c1.233 10.879 6.838 25.945 26.535 35.943l.044.022.045.022c7.64 3.712 15.799 5.594 24.251 5.594.57 0 1.142-.009 1.714-.027-1.996 4.503-5.61 9.405-12.064 10.895l-.066.015-.066.017a26.062 26.062 0 0 1-6.365.816c-3.772 0-8.714-.876-10.832-5.052a19.49 19.49 0 0 1-.857-2.009 6.36 6.36 0 0 1-.039-.15c-.286-1.096-.88-3.378-3.035-4.829a6.243 6.243 0 0 0-3.491-1.091 5.934 5.934 0 0 0-4.561 2.133c-1.68 2.006-1.655 4.544-1.337 6.32.573 3.215 1.392 6.088 3.524 9.658 1.874 3.138 5.035 5.936 8.673 7.677 3.601 1.724 7.746 2.563 12.672 2.563 1.494 0 3.056-.076 4.773-.232 16.112-1.46 28.353-13.135 32.08-30.532 18.664-7.019 33.264-22.742 38.524-41.758 4.696-16.98 2.099-33.672-7.126-45.795-7.348-9.657-18.128-15.245-29.632-15.379l-.021-1.798c9.29-8.313 18.065-19.197 24.329-30.229 5.347-9.418 11.157-22.976 8.47-34.083-1.782-7.367-7.152-12.443-15.12-14.294a28.26 28.26 0 0 0-6.396-.729zM68.733 166.309a43.406 43.406 0 0 0 7.615-3.951c22.962-14.995 35.603-66.353-2.111-68.291a28.827 28.827 0 0 0-1.495-.038c-1.296 0-2.577.086-3.837.246.312 21.974.719 52.164-.172 72.034zm-16.72 3.217c3.406 0 6.864-.391 10.268-1.186.354-18.946-.838-50.009-1.593-71.744-7.711 3.463-13.727 10.251-15.948 19.255-1.246 5.053-1.398 10.544-.035 15.604.69 2.559 1.95 5.765 4.057 7.499 1.015.835 2.213 1.283 3.453 1.665.662.203 1.077.27 1.492.27.356 0 .713-.049 1.226-.102.038.279.056.559.045.838-1.01.25-1.801.355-2.507.355-.252 0-.493-.013-.729-.038-7.279-.766-10.491-7.231-11.471-14.155-1.937-13.894 3.323-27.671 15.684-35.155a39.66 39.66 0 0 1 4.518-2.354c-.08-2.423-.149-4.667-.206-6.698-17.853 12.008-38.89 26.011-42.363 48.91-3.844 23.788 14.274 37.036 34.109 37.036zM68.637 67.567c.429-.346.862-.687 1.286-1.04C80.154 58.01 90.075 46.413 92.84 33.041c1.092-5.282 1.28-10.661-4.567-12.827a10.707 10.707 0 0 0-3.724-.65c-3.923.001-7.903 1.986-10.216 5.079-7.813 10.35-5.996 29.713-5.696 42.924zM85.666 6.198c1.737 0 3.457.196 5.113.581 25.784 5.99 3.246 49.056-22.09 70.527.026 3.007.07 6.535.124 10.451a31.647 31.647 0 0 1 5.168-.429c22.113 0 40.089 23.728 31.717 53.996-5.18 18.726-20.233 33.421-38.073 39.001a44.36 44.36 0 0 1-.412 2.508c-2.849 14.212-12.382 25.306-27.167 26.646a47.026 47.026 0 0 1-4.261.208c-3.532 0-7.066-.494-10.225-2.006-2.425-1.161-4.849-3.12-6.253-5.471-1.686-2.824-2.324-5.021-2.81-7.747-.088-.491-.201-1.788.317-1.788.089 0 .196.038.325.125.518.348.675 1.576.882 2.133.342.924.713 1.838 1.159 2.717 3.051 6.014 9.478 8.156 15.888 8.156 2.675 0 5.348-.373 7.771-.993 10.805-2.493 16.892-12.563 18.602-22.953a51.756 51.756 0 0 1-9.526.891c-7.277 0-14.671-1.573-21.774-5.023-37.248-18.907-25.756-61.902.898-84.149 9.167-7.259 19.384-13.038 29.008-19.653-.422-10.046-2.345-35.364 3.51-51.551C67.584 11.243 76.859 6.197 85.666 6.198z" fill="#FFFFFE"/><path d="M113.839 80.216c0-4.789 5.542-9.621 12.616-11a18.933 18.933 0 0 1 3.601-.36c1.671 0 3.204.242 4.539.709V24.601l39.814-10.229v54.046c0 4.789-5.542 9.621-12.616 11a18.952 18.952 0 0 1-3.604.359c-5.625 0-9.554-2.833-9.554-6.888 0-4.79 5.541-9.621 12.615-11.001a18.93 18.93 0 0 1 3.601-.359c1.671 0 3.204.242 4.539.708V25.78l-29.776 7.649v42.316c0 4.79-5.541 9.622-12.616 11-1.224.239-2.437.36-3.604.36-5.626 0-9.555-2.833-9.555-6.889z" fill="#D30000"/><path d="M175.827 12.545l-40.521 10.409-2.129.547v44.223a16.598 16.598 0 0 0-3.121-.285c-1.256 0-2.559.13-3.872.386-7.846 1.529-13.762 6.856-13.762 12.391 0 4.891 4.512 8.306 10.971 8.306 1.258 0 2.562-.129 3.876-.385 7.846-1.53 13.762-6.857 13.762-12.392V34.528l26.942-6.921v32.79a16.515 16.515 0 0 0-3.121-.285c-1.257 0-2.559.129-3.872.385-7.846 1.53-13.762 6.857-13.762 12.392 0 4.89 4.511 8.306 10.971 8.306 1.258 0 2.562-.13 3.876-.386 7.845-1.529 13.762-6.857 13.762-12.392V12.545zm-2.835 3.655v52.217c0 4.073-5.135 8.375-11.47 9.61a17.459 17.459 0 0 1-3.333.333c-4.708 0-8.137-2.144-8.137-5.471 0-4.073 5.136-8.375 11.47-9.609a17.44 17.44 0 0 1 3.33-.334c2.421 0 4.503.568 5.955 1.571V23.952l-32.611 8.378v43.415c0 4.072-5.135 8.374-11.47 9.609a17.463 17.463 0 0 1-3.333.334c-4.708 0-8.136-2.145-8.136-5.472 0-4.072 5.135-8.374 11.469-9.609a17.436 17.436 0 0 1 3.33-.333c2.421 0 4.503.567 5.956 1.57V25.7l36.98-9.5z" fill="#FFFFFE"/></g></svg>